<svg width="32" height="32" viewBox="0 0 32 32" fill="none" xmlns="http://www.w3.org/2000/svg">
<rect width="32" height="32" rx="16" fill="#EC7F07"/>
<path d="M12.9133 16.4276C13.1505 16.4276 13.3321 16.3758 13.4581 16.2721C13.5841 16.1685 13.6731 16.0685 13.725 15.9723C13.7843 15.8538 13.8213 15.7205 13.8362 15.5724C13.851 15.417 13.8584 15.243 13.8584 15.0505C13.8584 14.8802 13.851 14.7247 13.8362 14.584C13.8287 14.4434 13.8028 14.3138 13.7583 14.1953C13.7139 14.0769 13.6546 13.9843 13.5804 13.9177C13.5063 13.851 13.4285 13.8029 13.3469 13.7733C13.2728 13.7363 13.1987 13.7141 13.1246 13.7067C13.0579 13.6993 13.0097 13.6956 12.98 13.6956H12.2128C12.1906 13.6956 12.1572 13.7067 12.1128 13.7289C12.0757 13.7437 12.0498 13.7585 12.0349 13.7733C11.983 13.8251 11.9571 13.8918 11.9571 13.9732V16.4276H12.9133ZM11.9571 19.8926H9.77783V13.2402C9.77783 13.0699 9.80007 12.907 9.84454 12.7516C9.89643 12.5961 10.0076 12.4554 10.1781 12.3295C10.3115 12.2333 10.4487 12.1741 10.5895 12.1518C10.7303 12.1296 10.8712 12.1185 11.012 12.1185H13.7472C13.8436 12.1185 13.9585 12.1259 14.0919 12.1407C14.2327 12.1481 14.381 12.1741 14.5366 12.2185C14.6923 12.2555 14.848 12.3147 15.0036 12.3962C15.1667 12.4776 15.3149 12.5887 15.4484 12.7294C15.5966 12.8848 15.7115 13.0588 15.7931 13.2513C15.882 13.4364 15.945 13.6289 15.9821 13.8288C16.0265 14.0213 16.0525 14.2101 16.0599 14.3952C16.0747 14.5803 16.0821 14.7432 16.0821 14.8839C16.0821 15.0097 16.0784 15.1726 16.071 15.3725C16.0636 15.565 16.0451 15.7686 16.0154 15.9834C15.9858 16.1981 15.9376 16.4128 15.8709 16.6275C15.8042 16.8422 15.7152 17.031 15.604 17.1939C15.4706 17.3864 15.3187 17.5382 15.1482 17.6492C14.9777 17.7529 14.7998 17.8306 14.6145 17.8825C14.4292 17.9343 14.2476 17.9676 14.0697 17.9824C13.8918 17.9972 13.725 18.0046 13.5693 18.0046H11.9571V19.8926Z" fill="white"/>
<path d="M16.5517 16.4276H19.765C19.8095 16.4276 19.854 16.4128 19.8985 16.3832C19.9355 16.361 19.9541 16.3239 19.9541 16.2721C19.9541 16.2351 19.9429 16.2092 19.9207 16.1944C19.8985 16.1722 19.8762 16.1536 19.854 16.1388C19.8169 16.1166 19.7539 16.0944 19.665 16.0722C19.576 16.0426 19.4167 15.9871 19.1869 15.9056L17.9193 15.4947C17.6525 15.4059 17.4116 15.3022 17.1966 15.1837C16.9817 15.0579 16.8186 14.9024 16.7074 14.7173C16.6259 14.5766 16.5666 14.4137 16.5295 14.2286C16.4998 14.0435 16.485 13.877 16.485 13.7289C16.485 13.5438 16.5036 13.3624 16.5406 13.1847C16.5851 12.9996 16.6592 12.8293 16.763 12.6738C16.9186 12.4369 17.1077 12.2851 17.33 12.2185C17.5524 12.1518 17.8193 12.1185 18.1306 12.1185H22.0666V13.6289H18.8644C18.8274 13.6289 18.7866 13.6289 18.7421 13.6289C18.6976 13.6215 18.6532 13.6252 18.6087 13.64C18.579 13.6474 18.5531 13.6585 18.5309 13.6733C18.516 13.6808 18.5086 13.703 18.5086 13.74C18.5086 13.7844 18.5197 13.814 18.542 13.8288C18.5642 13.8436 18.5939 13.8584 18.6309 13.8733C18.6976 13.8955 18.7458 13.914 18.7755 13.9288C18.8051 13.9362 18.8311 13.9473 18.8533 13.9621C18.8755 13.9695 18.9015 13.9806 18.9311 13.9954C18.9608 14.0028 19.009 14.0176 19.0757 14.0398L20.5656 14.5396C20.8769 14.6433 21.1438 14.7506 21.3661 14.8617C21.5959 14.9727 21.7812 15.1319 21.9221 15.3392C22.0629 15.5391 22.1482 15.7464 22.1778 15.9611C22.2075 16.1759 22.2223 16.3462 22.2223 16.472C22.2223 16.6867 22.1889 16.9088 22.1222 17.1384C22.0629 17.3679 21.9332 17.5641 21.7331 17.727C21.5774 17.8528 21.4143 17.9306 21.2438 17.9602C21.0733 17.9898 20.914 18.0046 20.7657 18.0046H16.5517V16.4276Z" fill="white"/>
</svg>
