<svg width="16" height="16" viewBox="0 0 16 16" fill="none" xmlns="http://www.w3.org/2000/svg">
<path fill-rule="evenodd" clip-rule="evenodd" d="M3.2 2.66663C3.2 2.37208 3.43878 2.1333 3.73333 2.1333H12.2667C12.5612 2.1333 12.8 2.37208 12.8 2.66663V14.4C12.8 14.5939 12.6948 14.7724 12.5252 14.8664C12.3556 14.9604 12.1484 14.955 11.984 14.8522L8 12.3622L4.016 14.8522C3.85159 14.955 3.64436 14.9604 3.47479 14.8664C3.30521 14.7724 3.2 14.5939 3.2 14.4V2.66663ZM4.26666 3.19997V13.4377L7.43466 11.4577C7.78055 11.2416 8.21944 11.2416 8.56533 11.4577L11.7333 13.4377V3.19997H4.26666Z" fill="black"/>
</svg>
