<svg width="16" height="16" viewBox="0 0 16 16" fill="#fff" xmlns="http://www.w3.org/2000/svg">
<path fill-rule="evenodd" clip-rule="evenodd" d="M5.33333 7.99998C5.33333 8.88363 4.61699 9.59998 3.73333 9.59998C2.84967 9.59998 2.13333 8.88363 2.13333 7.99998C2.13333 7.11633 2.84967 6.39998 3.73333 6.39998C4.61699 6.39998 5.33333 7.11633 5.33333 7.99998ZM6.094 9.24142C5.64741 10.0889 4.75784 10.6666 3.73333 10.6666C2.26058 10.6666 1.06667 9.47274 1.06667 7.99998C1.06667 6.52722 2.26058 5.33332 3.73333 5.33332C4.75784 5.33332 5.64741 5.91107 6.094 6.75852L9.71119 4.49778C9.63886 4.25561 9.6 3.999 9.6 3.73332C9.6 2.26056 10.7939 1.06665 12.2667 1.06665C13.7394 1.06665 14.9333 2.26056 14.9333 3.73332C14.9333 5.20607 13.7394 6.39998 12.2667 6.39998C11.4043 6.39998 10.6375 5.99061 10.15 5.35558L6.38432 7.70916C6.39469 7.80467 6.4 7.9017 6.4 7.99998C6.4 8.09826 6.39469 8.19528 6.38432 8.2908L10.15 10.6444C10.6375 10.0094 11.4043 9.59998 12.2667 9.59998C13.7394 9.59998 14.9333 10.7939 14.9333 12.2666C14.9333 13.7394 13.7394 14.9333 12.2667 14.9333C10.7939 14.9333 9.6 13.7394 9.6 12.2666C9.6 12.0009 9.63886 11.7444 9.7112 11.5021L6.094 9.24142ZM12.2667 5.33332C13.1503 5.33332 13.8667 4.61698 13.8667 3.73332C13.8667 2.84966 13.1503 2.13332 12.2667 2.13332C11.383 2.13332 10.6667 2.84966 10.6667 3.73332C10.6667 4.61698 11.383 5.33332 12.2667 5.33332ZM13.8667 12.2666C13.8667 13.1504 13.1503 13.8666 12.2667 13.8666C11.383 13.8666 10.6667 13.1504 10.6667 12.2666C10.6667 11.383 11.383 10.6666 12.2667 10.6666C13.1503 10.6666 13.8667 11.383 13.8667 12.2666Z" fill="#000" fill-opacity="0.85"/>
</svg>
