<svg width="16" height="16" viewBox="0 0 16 16" fill="none" xmlns="http://www.w3.org/2000/svg">
<path fill-rule="evenodd" clip-rule="evenodd" d="M4.8 2.1333C3.32724 2.1333 2.13333 3.32721 2.13333 4.79997C2.13333 6.27274 3.32724 7.46663 4.8 7.46663C6.27277 7.46663 7.46667 6.27274 7.46667 4.79997C7.46667 3.32721 6.27277 2.1333 4.8 2.1333ZM3.2 4.79997C3.2 3.91631 3.91634 3.19997 4.8 3.19997C5.68366 3.19997 6.4 3.91631 6.4 4.79997C6.4 5.68363 5.68366 6.39997 4.8 6.39997C3.91634 6.39997 3.2 5.68363 3.2 4.79997ZM11.2 2.1333C9.72724 2.1333 8.53333 3.32721 8.53333 4.79997C8.53333 6.27274 9.72724 7.46663 11.2 7.46663C12.6727 7.46663 13.8667 6.27274 13.8667 4.79997C13.8667 3.32721 12.6727 2.1333 11.2 2.1333ZM9.6 4.79997C9.6 3.91631 10.3163 3.19997 11.2 3.19997C12.0836 3.19997 12.8 3.91631 12.8 4.79997C12.8 5.68363 12.0836 6.39997 11.2 6.39997C10.3163 6.39997 9.6 5.68363 9.6 4.79997ZM2.13333 11.2C2.13333 9.72721 3.32724 8.5333 4.8 8.5333C6.27277 8.5333 7.46667 9.72721 7.46667 11.2C7.46667 12.6727 6.27277 13.8666 4.8 13.8666C3.32724 13.8666 2.13333 12.6727 2.13333 11.2ZM4.8 9.59997C3.91634 9.59997 3.2 10.3163 3.2 11.2C3.2 12.0836 3.91634 12.8 4.8 12.8C5.68366 12.8 6.4 12.0836 6.4 11.2C6.4 10.3163 5.68366 9.59997 4.8 9.59997ZM11.2 8.5333C9.72724 8.5333 8.53333 9.72721 8.53333 11.2C8.53333 12.6727 9.72724 13.8666 11.2 13.8666C12.6727 13.8666 13.8667 12.6727 13.8667 11.2C13.8667 9.72721 12.6727 8.5333 11.2 8.5333ZM9.6 11.2C9.6 10.3163 10.3163 9.59997 11.2 9.59997C12.0836 9.59997 12.8 10.3163 12.8 11.2C12.8 12.0836 12.0836 12.8 11.2 12.8C10.3163 12.8 9.6 12.0836 9.6 11.2Z" fill="black"/>
</svg>
