<svg width="16" height="17" viewBox="0 0 16 17" fill="none" xmlns="http://www.w3.org/2000/svg">
<g clip-path="url(#clip0_23_171)">
<path d="M8 1.71089C10.1375 1.71089 10.3906 1.72026 11.2313 1.75776C12.0125 1.79214 12.4344 1.92339 12.7156 2.03276C13.0875 2.17651 13.3563 2.35151 13.6344 2.62964C13.9156 2.91089 14.0875 3.17651 14.2313 3.54839C14.3406 3.82964 14.4719 4.25464 14.5063 5.03276C14.5438 5.87651 14.5531 6.12964 14.5531 8.26401C14.5531 10.4015 14.5438 10.6546 14.5063 11.4953C14.4719 12.2765 14.3406 12.6984 14.2313 12.9796C14.0875 13.3515 13.9125 13.6203 13.6344 13.8984C13.3531 14.1796 13.0875 14.3515 12.7156 14.4953C12.4344 14.6046 12.0094 14.7359 11.2313 14.7703C10.3875 14.8078 10.1344 14.8171 8 14.8171C5.8625 14.8171 5.60938 14.8078 4.76875 14.7703C3.9875 14.7359 3.56563 14.6046 3.28438 14.4953C2.9125 14.3515 2.64375 14.1765 2.36563 13.8984C2.08438 13.6171 1.9125 13.3515 1.76875 12.9796C1.65938 12.6984 1.52813 12.2734 1.49375 11.4953C1.45625 10.6515 1.44688 10.3984 1.44688 8.26401C1.44688 6.12651 1.45625 5.87339 1.49375 5.03276C1.52813 4.25151 1.65938 3.82964 1.76875 3.54839C1.9125 3.17651 2.0875 2.90776 2.36563 2.62964C2.64688 2.34839 2.9125 2.17651 3.28438 2.03276C3.56563 1.92339 3.99063 1.79214 4.76875 1.75776C5.60938 1.72026 5.8625 1.71089 8 1.71089ZM8 0.270264C5.82813 0.270264 5.55625 0.279639 4.70313 0.317139C3.85313 0.354639 3.26875 0.492139 2.7625 0.689014C2.23438 0.895264 1.7875 1.16714 1.34375 1.61401C0.896875 2.05776 0.625 2.50464 0.41875 3.02964C0.221875 3.53901 0.084375 4.12026 0.046875 4.97026C0.009375 5.82651 0 6.09839 0 8.27026C0 10.4421 0.009375 10.714 0.046875 11.5671C0.084375 12.4171 0.221875 13.0015 0.41875 13.5078C0.625 14.0359 0.896875 14.4828 1.34375 14.9265C1.7875 15.3703 2.23438 15.6453 2.75938 15.8484C3.26875 16.0453 3.85 16.1828 4.7 16.2203C5.55313 16.2578 5.825 16.2671 7.99688 16.2671C10.1688 16.2671 10.4406 16.2578 11.2938 16.2203C12.1438 16.1828 12.7281 16.0453 13.2344 15.8484C13.7594 15.6453 14.2063 15.3703 14.65 14.9265C15.0938 14.4828 15.3688 14.0359 15.5719 13.5109C15.7688 13.0015 15.9063 12.4203 15.9438 11.5703C15.9813 10.7171 15.9906 10.4453 15.9906 8.27339C15.9906 6.10151 15.9813 5.82964 15.9438 4.97651C15.9063 4.12651 15.7688 3.54214 15.5719 3.03589C15.375 2.50464 15.1031 2.05776 14.6563 1.61401C14.2125 1.17026 13.7656 0.895264 13.2406 0.692139C12.7313 0.495264 12.15 0.357764 11.3 0.320264C10.4438 0.279639 10.1719 0.270264 8 0.270264Z" fill="white"/>
<path d="M8 4.16089C5.73125 4.16089 3.89062 6.00151 3.89062 8.27026C3.89062 10.539 5.73125 12.3796 8 12.3796C10.2688 12.3796 12.1094 10.539 12.1094 8.27026C12.1094 6.00151 10.2688 4.16089 8 4.16089ZM8 10.9359C6.52813 10.9359 5.33437 9.74214 5.33437 8.27026C5.33437 6.79839 6.52813 5.60464 8 5.60464C9.47188 5.60464 10.6656 6.79839 10.6656 8.27026C10.6656 9.74214 9.47188 10.9359 8 10.9359Z" fill="white"/>
<path d="M13.2312 3.99844C13.2312 4.52969 12.8 4.95782 12.2719 4.95782C11.7406 4.95782 11.3125 4.52657 11.3125 3.99844C11.3125 3.46719 11.7438 3.03906 12.2719 3.03906C12.8 3.03906 13.2312 3.47031 13.2312 3.99844Z" fill="white"/>
</g>
<defs>
<clipPath id="clip0_23_171">
<rect width="16" height="16" fill="white" transform="translate(0 0.270264)"/>
</clipPath>
</defs>
</svg>
