<svg width="116" height="21" viewBox="0 0 116 21" fill="none" xmlns="http://www.w3.org/2000/svg">
<path d="M4.061 20.5322H0V7.2685C0 6.941 0.03275 6.6135 0.131 6.286C0.22925 5.99125 0.42575 5.6965 0.753249 5.46725C1.01525 5.27075 1.2445 5.1725 1.5065 5.107C1.7685 5.07425 2.0305 5.0415 2.2925 5.0415H7.40149C7.56524 5.0415 7.79449 5.0415 8.05649 5.07425C8.31849 5.107 8.58049 5.13975 8.87524 5.238C9.16999 5.33625 9.46474 5.4345 9.75949 5.59825C10.0542 5.762 10.3162 5.99125 10.5782 6.25325C10.8402 6.548 11.0695 6.90825 11.2332 7.2685C11.397 7.62875 11.4952 8.02175 11.5935 8.41475C11.659 8.80775 11.7245 9.20075 11.7245 9.561C11.7572 9.92125 11.7572 10.2488 11.7572 10.5435C11.7572 10.8055 11.7572 11.1003 11.7245 11.4932C11.7245 11.8862 11.6917 12.2792 11.6262 12.705C11.5607 13.1307 11.4952 13.5565 11.3642 13.9822C11.2332 14.408 11.0695 14.801 10.873 15.0957C10.611 15.4887 10.349 15.7835 10.0215 15.98C9.69399 16.2092 9.36649 16.3402 9.03899 16.4712C8.67874 16.5695 8.35124 16.635 8.02374 16.6677C7.69624 16.7005 7.36874 16.7005 7.07399 16.7005H4.061V20.5322ZM5.86225 13.622C6.32075 13.622 6.64825 13.5237 6.8775 13.3272C7.10675 13.1307 7.27049 12.9342 7.36874 12.7377C7.46699 12.5085 7.56524 12.2465 7.56524 11.919C7.59799 11.6242 7.59799 11.264 7.59799 10.9037C7.59799 10.5763 7.59799 10.2488 7.56524 9.98675C7.53249 9.692 7.49974 9.46275 7.40149 9.20075C7.30324 8.9715 7.20499 8.775 7.07399 8.644C6.94299 8.513 6.77924 8.41475 6.64825 8.34925C6.51725 8.28375 6.3535 8.251 6.2225 8.21825C6.0915 8.21825 5.99325 8.1855 5.92775 8.1855H4.48675C4.454 8.1855 4.3885 8.21825 4.323 8.251C4.2575 8.28375 4.192 8.3165 4.15925 8.34925C4.061 8.4475 4.02825 8.5785 4.02825 8.74225V13.622H5.86225Z" fill="white"/>
<path d="M16.8329 5.04224V10.8717C16.8329 11.4285 16.8657 11.8542 16.9312 12.1817C16.9967 12.4765 17.0949 12.7385 17.2259 12.9022C17.3242 13.066 17.4552 13.2297 17.6189 13.328C17.7827 13.4262 17.9137 13.4917 18.0774 13.5245C18.2412 13.5572 18.3722 13.59 18.5359 13.6227C18.6997 13.6227 18.8307 13.6555 18.9617 13.6555H19.7149C20.0424 13.6555 20.2717 13.59 20.4354 13.4262C20.5337 13.2952 20.5992 13.197 20.6319 13.066C20.6319 12.935 20.6647 12.8367 20.6647 12.7057V5.04224H24.7257V14.376C24.7257 14.7035 24.6929 15.031 24.6274 15.3585C24.5619 15.686 24.3654 15.9807 24.0707 16.2427C23.8087 16.5047 23.4812 16.6357 23.1209 16.7012C22.7607 16.7667 22.4987 16.7667 22.2694 16.7667H17.2259C16.4399 16.7667 15.7849 16.6685 15.2937 16.472C14.8352 16.2427 14.4422 16.0135 14.1802 15.7515C13.6234 15.2602 13.2304 14.638 13.0667 13.8847C12.9029 13.1315 12.8047 12.3127 12.8047 11.4285V5.04224H16.8329Z" fill="white"/>
<path d="M29.9985 5.04224V10.8717C29.9985 11.4285 30.0312 11.8542 30.0967 12.1817C30.1622 12.4765 30.2605 12.7385 30.3915 12.9022C30.4897 13.066 30.6207 13.2297 30.7845 13.328C30.9482 13.4262 31.0792 13.4917 31.243 13.5245C31.4067 13.5572 31.5377 13.59 31.7015 13.6227C31.8652 13.6227 31.9962 13.6555 32.1272 13.6555H32.8805C33.208 13.6555 33.4372 13.59 33.601 13.4262C33.6992 13.2952 33.7647 13.197 33.7975 13.066C33.7975 12.935 33.8302 12.8367 33.8302 12.7057V5.04224H37.8912V14.376C37.8912 14.7035 37.8585 15.031 37.7602 15.3585C37.6947 15.686 37.4982 15.9807 37.2035 16.2427C36.9415 16.5047 36.614 16.6357 36.2537 16.7012C35.8935 16.7667 35.6315 16.7667 35.4022 16.7667H30.3915C29.6055 16.7667 28.9505 16.6685 28.4592 16.472C27.968 16.2755 27.575 16.0462 27.313 15.7842C26.7562 15.293 26.3632 14.6707 26.1995 13.9175C26.003 13.1642 25.9375 12.3455 25.9375 11.4612V5.04224H29.9985Z" fill="white"/>
<path d="M39.136 9.88892C39.136 9.59417 39.1688 9.29942 39.2015 8.97192C39.2343 8.64442 39.2998 8.31692 39.398 7.95667C39.4963 7.59642 39.6273 7.26892 39.8238 6.97417C40.0203 6.64667 40.2495 6.35192 40.5443 6.08992C40.8718 5.82792 41.1993 5.63142 41.5595 5.50042C41.9198 5.36942 42.28 5.27117 42.673 5.20567C43.0333 5.14017 43.3935 5.10742 43.721 5.10742C44.0485 5.10742 44.376 5.10742 44.638 5.10742L47.3235 5.17292L47.258 8.21867L45.8498 8.18592C45.4568 8.18592 45.0638 8.21867 44.7035 8.31692C44.3433 8.41517 44.0485 8.64442 43.7538 9.00467C43.5245 9.33217 43.3608 9.69242 43.2953 10.1182C43.2298 10.5112 43.197 10.9042 43.1643 11.2317L43.0333 16.8319L38.9723 16.6682L39.136 9.88892Z" fill="white"/>
<path d="M47.6857 13.623H53.6789C53.7772 13.623 53.8427 13.5902 53.9409 13.5247C54.0064 13.492 54.0392 13.3937 54.0392 13.2955C54.0392 13.23 54.0064 13.1645 53.9737 13.1317C53.9409 13.099 53.8754 13.0662 53.8427 13.0335C53.7772 13.0007 53.6462 12.9352 53.4824 12.9025C53.3187 12.837 53.0239 12.7387 52.5982 12.575L50.2402 11.7562C49.7489 11.5925 49.2904 11.3632 48.8974 11.134C48.5044 10.9047 48.1769 10.5772 47.9804 10.217C47.8167 9.92223 47.7184 9.62748 47.6529 9.23448C47.5874 8.87423 47.5547 8.54673 47.5547 8.25198C47.5547 7.89173 47.5874 7.53148 47.6529 7.17123C47.7184 6.81098 47.8494 6.48348 48.0459 6.15598C48.3407 5.69748 48.7009 5.36998 49.0939 5.23898C49.5197 5.10798 50.0109 5.04248 50.6004 5.04248H57.9364V8.05548H51.9432C51.8777 8.05548 51.8122 8.05548 51.7139 8.05548C51.6157 8.05548 51.5502 8.05548 51.4519 8.08823C51.3864 8.08823 51.3537 8.12098 51.3209 8.15373C51.2882 8.18648 51.2554 8.21923 51.2554 8.28473C51.2554 8.38298 51.2882 8.44848 51.3209 8.44848C51.3537 8.48123 51.4192 8.51398 51.4847 8.54673C51.6157 8.57948 51.7139 8.61223 51.7467 8.64498C51.8122 8.67773 51.8449 8.67773 51.8777 8.71048C51.9104 8.74323 51.9759 8.74323 52.0087 8.77598C52.0742 8.80873 52.1397 8.84148 52.2707 8.87423L55.0544 9.85673C55.6439 10.0532 56.1352 10.2825 56.5609 10.5117C56.9867 10.741 57.3142 11.0357 57.5762 11.4615C57.8382 11.8545 58.0019 12.2802 58.0674 12.706C58.1329 13.1317 58.1657 13.4592 58.1657 13.7212C58.1657 14.147 58.1002 14.6055 58.0019 15.064C57.8709 15.5225 57.6417 15.9155 57.2487 16.243C56.9539 16.505 56.6592 16.636 56.3317 16.7015C56.0042 16.767 55.7094 16.7997 55.4474 16.7997H47.5874V13.623H47.6857Z" fill="white"/>
<path d="M63.3382 20.5323H59.2772V7.26854C59.2772 6.94104 59.3099 6.61354 59.4082 6.28604C59.5064 5.99129 59.7029 5.69654 60.0304 5.43454C60.2924 5.23804 60.5217 5.13979 60.7837 5.07429C61.0457 5.04154 61.3077 5.00879 61.5697 5.00879H66.6787C66.8424 5.00879 67.0717 5.00879 67.3337 5.04154C67.5957 5.07429 67.8577 5.10704 68.1524 5.20529C68.4472 5.30354 68.7419 5.40179 69.0367 5.56554C69.3314 5.72929 69.5934 5.95854 69.8554 6.22054C70.1174 6.51529 70.3467 6.87554 70.5104 7.23579C70.6742 7.59604 70.7724 7.98904 70.8707 8.38204C70.9362 8.77504 71.0017 9.16804 71.0017 9.52829C71.0344 9.88854 71.0344 10.216 71.0344 10.5108C71.0344 10.7728 71.0344 11.0675 71.0017 11.4605C71.0017 11.8535 70.9689 12.2465 70.9034 12.6723C70.8379 13.098 70.7724 13.5238 70.6414 13.9495C70.5104 14.3753 70.3467 14.7683 70.1502 15.063C69.8882 15.456 69.6262 15.7508 69.2987 15.9473C68.9712 16.1765 68.6437 16.3075 68.3162 16.4385C67.9559 16.5368 67.6284 16.6023 67.3009 16.635C66.9734 16.6678 66.6459 16.6678 66.3512 16.6678H63.3382V20.5323ZM65.1394 13.622C65.5979 13.622 65.9254 13.5238 66.1547 13.3273C66.3839 13.1308 66.5477 12.9343 66.6459 12.7378C66.7442 12.5085 66.8424 12.2465 66.8424 11.919C66.8752 11.6243 66.8752 11.264 66.8752 10.9038C66.8752 10.5763 66.8752 10.2488 66.8424 9.98679C66.8097 9.69204 66.7769 9.46279 66.6787 9.20079C66.5804 8.97154 66.4822 8.77504 66.3512 8.64404C66.2202 8.51304 66.0564 8.41479 65.9254 8.34929C65.7944 8.28379 65.6307 8.25104 65.4997 8.21829C65.3687 8.21829 65.2704 8.18554 65.2049 8.18554H63.7639C63.7312 8.18554 63.6657 8.21829 63.6002 8.25104C63.5347 8.28379 63.4692 8.31654 63.4364 8.34929C63.3382 8.44754 63.3054 8.57854 63.3054 8.74229V13.622H65.1394Z" fill="white"/>
<path d="M79.8441 5.04154C80.5319 5.04154 81.0886 5.13979 81.5471 5.36904C82.0056 5.59829 82.3331 5.82754 82.5624 6.05679C82.7916 6.28604 82.9554 6.54804 83.1191 6.84279C83.2501 7.13754 83.3811 7.43229 83.4466 7.69429C83.5121 7.98904 83.5776 8.28379 83.5776 8.54579C83.6103 8.84054 83.6104 9.10254 83.6104 9.33179V14.2443C83.6104 14.539 83.5776 14.8665 83.5121 15.194C83.4466 15.5215 83.3156 15.8163 83.0536 16.111C82.7916 16.4058 82.4969 16.5695 82.1694 16.635C81.8419 16.7005 81.5144 16.7333 81.1869 16.7333H74.7024C74.3421 16.7333 74.0146 16.7005 73.6544 16.635C73.2941 16.5695 72.9666 16.4058 72.7046 16.111C72.5081 15.9145 72.3444 15.6525 72.2134 15.3905C72.0824 15.0958 71.9841 14.8338 71.9514 14.5063C71.8859 14.2115 71.8531 13.9168 71.8531 13.622C71.8531 13.3273 71.8204 13.0653 71.8204 12.836C71.8204 12.574 71.8204 12.312 71.8531 12.05C71.8859 11.788 71.9186 11.4933 71.9841 11.2313C72.0496 10.9693 72.1479 10.7073 72.2789 10.478C72.4099 10.2488 72.5736 10.0523 72.8029 9.85579C73.0976 9.59379 73.4251 9.46279 73.7526 9.39729C74.0801 9.36454 74.4076 9.33179 74.7351 9.33179H79.5494V9.16804C79.5494 9.06979 79.5494 8.93879 79.5166 8.80779C79.4839 8.67679 79.4511 8.54579 79.3529 8.38204C79.1891 8.15279 78.9926 8.02179 78.7634 7.98904C78.5341 7.95629 78.3049 7.92354 78.1084 7.92354H72.5736V5.00879H79.8441V5.04154ZM76.6346 12.1483C76.5691 12.1483 76.4709 12.1483 76.3399 12.181C76.2089 12.2138 76.1106 12.2465 76.0124 12.3448C75.9469 12.4103 75.9141 12.5085 75.8814 12.6068C75.8486 12.705 75.8486 12.8033 75.8486 12.9015C75.8486 12.9998 75.8486 13.0653 75.8814 13.1635C75.9141 13.2618 75.9469 13.3273 76.0124 13.3928C76.0779 13.4583 76.1761 13.5238 76.2744 13.5565C76.3726 13.5893 76.4709 13.5893 76.5691 13.5893H78.6979C78.7961 13.5893 78.9271 13.5893 79.0254 13.5565C79.1236 13.5238 79.2219 13.491 79.2874 13.4255C79.3856 13.36 79.4511 13.2618 79.4511 13.1635C79.4839 13.0653 79.4839 12.967 79.4839 12.8688V12.1483H76.6346Z" fill="white"/>
<path d="M84.8242 7.1375C84.8242 6.90825 84.857 6.679 84.8897 6.417C84.9225 6.155 85.0535 5.92575 85.2827 5.6965C85.4465 5.53275 85.6102 5.40175 85.8067 5.3035C86.0032 5.20525 86.2325 5.13975 86.4617 5.107C86.691 5.07425 86.8875 5.0415 87.1167 5.0415C87.346 5.0415 87.5097 5.0415 87.6735 5.0415H91.5052C92.1275 5.0415 92.7825 5.107 93.4047 5.20525C94.027 5.3035 94.6492 5.59825 95.206 6.0895C95.5007 6.3515 95.7627 6.64625 95.9265 6.941C96.0902 7.23575 96.254 7.5305 96.3522 7.858C96.4505 8.15275 96.516 8.48025 96.5487 8.775C96.5815 9.06975 96.5815 9.33175 96.5815 9.59375V16.7987H92.5205V10.8055C92.5205 10.3798 92.4877 10.0195 92.4222 9.692C92.3567 9.3645 92.2257 9.06975 92.062 8.80775C91.8982 8.54575 91.669 8.382 91.407 8.251C91.145 8.15275 90.8175 8.08725 90.3917 8.08725H89.6712C89.573 8.08725 89.5075 8.08725 89.3765 8.12C89.2782 8.15275 89.18 8.1855 89.0817 8.251C88.9835 8.34925 88.918 8.4475 88.918 8.5785C88.918 8.67675 88.918 8.80775 88.918 8.906V16.7332H84.857V7.1375H84.8242Z" fill="white"/>
<path d="M95.5312 17.7154C96.1207 17.7154 96.5793 17.7154 96.9068 17.6171C97.2343 17.5516 97.529 17.3879 97.8237 17.1586C98.0857 16.9294 98.2822 16.6674 98.446 16.3399C98.577 16.0124 98.6753 15.5539 98.6753 14.9316V5.04115H102.736V15.8486C102.736 16.1106 102.736 16.4054 102.703 16.7329C102.671 17.0604 102.605 17.4206 102.507 17.7809C102.409 18.1411 102.245 18.4686 102.016 18.7961C101.787 19.1236 101.525 19.4184 101.164 19.6804C100.64 20.0406 99.9525 20.3026 99.0683 20.4009C98.184 20.4991 97.0378 20.5646 95.564 20.5319V17.7154H95.5312ZM98.6753 3.86215V1.2749H102.736V3.86215H98.6753Z" fill="white"/>
<path d="M108.205 16.7674C107.779 16.7674 107.386 16.7674 107.026 16.7346C106.665 16.7346 106.305 16.6691 105.978 16.5709C105.65 16.4726 105.355 16.3089 105.061 16.1124C104.766 15.9159 104.537 15.6211 104.307 15.2281C104.078 14.8024 103.914 14.2456 103.849 13.5906C103.783 12.9356 103.751 12.0841 103.751 11.0034C103.751 10.4794 103.751 9.9554 103.751 9.46415C103.751 8.9729 103.783 8.5144 103.816 8.08865C103.882 7.6629 103.947 7.2699 104.078 6.9424C104.209 6.58215 104.406 6.2874 104.635 6.0254C104.897 5.73065 105.192 5.53415 105.585 5.3704C105.978 5.20665 106.371 5.1084 106.829 5.0429C107.288 4.9774 107.779 4.9119 108.27 4.9119C108.761 4.9119 109.285 4.87915 109.809 4.87915C110.923 4.87915 111.873 4.9119 112.593 4.9774C113.314 5.0429 113.903 5.27215 114.362 5.66515C114.624 5.8944 114.82 6.1564 114.984 6.4839C115.148 6.8114 115.279 7.1389 115.344 7.49915C115.442 7.8594 115.475 8.21965 115.508 8.5799C115.541 8.94015 115.541 9.26765 115.541 9.59515C115.541 9.98815 115.508 10.3811 115.442 10.7414C115.377 11.1344 115.18 11.4619 114.886 11.7239C114.722 11.8876 114.525 11.9859 114.362 12.0186C114.198 12.0514 114.001 12.0514 113.805 12.0514H107.812C107.812 12.2151 107.812 12.3789 107.844 12.5754C107.877 12.7391 107.943 12.9029 108.008 13.0339C108.172 13.3286 108.434 13.4924 108.794 13.5251C109.122 13.5579 109.482 13.5906 109.842 13.5906H115.18V16.7346H108.205V16.7674ZM110.825 9.3659C111.119 9.3659 111.283 9.3004 111.381 9.13665C111.447 9.00565 111.512 8.8419 111.512 8.74365C111.512 8.5799 111.447 8.41615 111.381 8.28515C111.283 8.15415 111.087 8.02315 110.792 7.95765C110.628 7.9249 110.432 7.89215 110.202 7.89215C109.973 7.89215 109.809 7.8594 109.711 7.8594C109.482 7.8594 109.22 7.8594 108.958 7.89215C108.696 7.9249 108.467 7.95765 108.303 8.0559C108.106 8.1869 107.975 8.35065 107.91 8.5799C107.844 8.80915 107.844 9.07115 107.877 9.3659H110.825Z" fill="white"/>
<path d="M115.77 1.80298C115.77 2.85991 114.961 3.66814 113.904 3.66814C112.847 3.66814 112.039 2.85991 112.039 1.80298C112.039 0.746063 112.847 0 113.967 0C114.961 0 115.77 0.808235 115.77 1.80298ZM112.474 1.80298C112.474 2.61122 113.096 3.29511 113.904 3.29511C114.713 3.29511 115.272 2.67339 115.272 1.86516C115.272 1.05692 114.65 0.373031 113.842 0.373031C113.096 0.373031 112.474 1.05692 112.474 1.80298ZM113.594 2.79773H113.158V0.932578C113.345 0.932578 113.531 0.870406 113.842 0.870406C114.215 0.870406 114.34 0.932578 114.464 0.99475C114.588 1.05692 114.65 1.18127 114.65 1.36778C114.65 1.61647 114.464 1.74081 114.277 1.80298C114.464 1.86516 114.526 1.9895 114.588 2.23819C114.65 2.48688 114.713 2.61122 114.713 2.67339H114.277C114.215 2.61122 114.215 2.4247 114.153 2.23819C114.091 2.05167 114.029 1.9895 113.78 1.9895H113.594V2.79773ZM113.594 1.74081H113.78C114.029 1.74081 114.215 1.67864 114.215 1.49213C114.215 1.30561 114.091 1.24344 113.842 1.24344C113.718 1.24344 113.656 1.24344 113.594 1.24344V1.74081Z" fill="white"/>
</svg>
