<svg xmlns:xlink="http://www.w3.org/1999/xlink"  width="116" height="22" viewBox="0 0 116 22" fill="none" xmlns="http://www.w3.org/2000/svg"><path d="M4.061 21.261H0V7.998c0-.328.033-.655.131-.983.098-.295.295-.59.622-.819.262-.196.491-.294.753-.36.262-.033.524-.065.786-.065h5.11c.163 0 .392 0 .654.032.262.033.524.066.82.164.294.098.589.197.883.36.295.164.557.393.82.655.261.295.49.655.654 1.016.164.36.262.753.36 1.146.066.393.132.786.132 1.146.032.36.032.688.032.983 0 .261 0 .556-.032.95 0 .392-.033.785-.099 1.211-.065.426-.13.852-.262 1.277-.13.426-.295.819-.491 1.114-.262.393-.524.688-.851.884-.328.23-.656.36-.983.491a6.14 6.14 0 01-1.015.197c-.328.033-.655.033-.95.033H4.061v3.831zm1.801-6.91c.459 0 .786-.098 1.016-.295.229-.196.392-.393.49-.59.099-.228.197-.49.197-.818.033-.295.033-.655.033-1.015 0-.328 0-.655-.033-.917-.033-.295-.065-.524-.164-.786-.098-.23-.196-.426-.327-.557a1.665 1.665 0 00-.426-.295c-.13-.065-.294-.098-.425-.13-.131 0-.23-.033-.295-.033H4.487a.553.553 0 00-.164.065.716.716 0 00-.164.098c-.098.099-.13.23-.13.393v4.88h1.833zM16.833 5.771v5.83c0 .557.033.982.098 1.31.066.295.164.557.295.72.098.164.23.328.393.426.164.098.295.164.458.197.164.033.295.065.459.098.164 0 .295.033.426.033h.753c.327 0 .557-.066.72-.23.099-.13.164-.229.197-.36 0-.13.033-.229.033-.36V5.771h4.06v9.334c0 .328-.032.655-.098.983-.065.327-.262.622-.556.884-.262.262-.59.393-.95.458-.36.066-.622.066-.852.066h-5.043c-.786 0-1.441-.098-1.932-.295-.459-.229-.852-.458-1.114-.72a3.426 3.426 0 01-1.113-1.867 11.526 11.526 0 01-.262-2.456V5.77h4.028zM29.998 5.771v5.83c0 .557.033.982.099 1.31.065.295.163.557.294.72.099.164.23.328.394.426.163.098.294.164.458.197.164.033.295.065.459.098.163 0 .294.033.425.033h.753c.328 0 .557-.066.721-.23.098-.13.164-.229.197-.36 0-.13.032-.229.032-.36V5.771h4.061v9.334c0 .328-.032.655-.13.983-.066.327-.263.622-.558.884-.262.262-.589.393-.95.458-.36.066-.621.066-.85.066h-5.011c-.787 0-1.441-.098-1.933-.295-.491-.196-.884-.425-1.146-.688a3.426 3.426 0 01-1.113-1.866c-.197-.754-.262-1.572-.262-2.457V5.772h4.06zM39.136 10.617c0-.294.033-.59.065-.917.033-.327.099-.655.197-1.015.098-.36.23-.688.426-.982a3.71 3.71 0 01.72-.885 3.564 3.564 0 011.015-.59c.36-.13.72-.228 1.114-.294a5.95 5.95 0 011.048-.098h.917l2.685.065-.065 3.046-1.408-.033c-.393 0-.786.033-1.147.131-.36.099-.655.328-.95.688-.229.328-.392.688-.458 1.114-.065.393-.098.786-.13 1.113l-.132 5.6-4.06-.163.163-6.78zM47.686 14.352h5.993c.098 0 .164-.033.262-.098.065-.033.098-.131.098-.23a.25.25 0 00-.065-.163c-.033-.033-.099-.066-.131-.099a1.414 1.414 0 00-.36-.13c-.164-.066-.46-.164-.885-.328l-2.358-.819a7.258 7.258 0 01-1.343-.622 2.463 2.463 0 01-.917-.917 2.896 2.896 0 01-.327-.983 5.535 5.535 0 01-.098-.982c0-.36.032-.72.098-1.08.065-.361.196-.689.393-1.016.295-.459.655-.786 1.048-.917.426-.131.917-.197 1.506-.197h7.336v3.013H51.713c-.097 0-.163 0-.261.033-.066 0-.098.033-.131.066-.033.032-.066.065-.066.13 0 .099.033.164.066.164a.717.717 0 00.164.099c.13.032.229.065.262.098.065.033.098.033.13.065.033.033.099.033.132.066.065.033.13.065.262.098l2.783.983a9.42 9.42 0 011.507.655c.426.229.753.524 1.015.95.262.393.426.818.491 1.244.066.426.099.753.099 1.015 0 .426-.066.885-.164 1.343-.131.459-.36.852-.753 1.179-.295.262-.59.393-.917.458a4.554 4.554 0 01-.885.099h-7.86v-3.177h.099zM63.338 21.262h-4.06V7.998c0-.327.032-.655.13-.982.099-.295.295-.59.623-.852.262-.196.49-.295.753-.36a6.36 6.36 0 01.786-.066h5.109c.164 0 .393 0 .655.033s.524.066.819.164c.294.098.59.196.884.36.295.164.557.393.819.655.262.295.49.655.655 1.015.163.36.262.754.36 1.147.065.393.13.786.13 1.146.034.36.034.688.034.982 0 .262 0 .557-.033.95 0 .393-.033.786-.098 1.212-.066.426-.131.851-.262 1.277-.131.426-.295.819-.492 1.114-.262.393-.524.687-.851.884-.328.229-.655.36-.983.491a6.13 6.13 0 01-1.015.197c-.327.032-.655.032-.95.032h-3.013v3.865zm1.802-6.91c.458 0 .786-.099 1.015-.295.23-.197.393-.393.491-.59.098-.229.197-.491.197-.819.032-.294.032-.655.032-1.015 0-.327 0-.655-.032-.917-.033-.294-.066-.524-.164-.786-.098-.229-.197-.425-.328-.556a1.665 1.665 0 00-.425-.295c-.131-.066-.295-.098-.426-.131-.131 0-.23-.033-.295-.033h-1.44c-.034 0-.1.033-.165.066a.714.714 0 00-.163.098c-.099.098-.131.229-.131.393v4.88h1.834zM79.844 5.771c.688 0 1.245.098 1.703.328.459.229.786.458 1.015.687.23.23.393.492.557.786.131.295.262.59.328.852.065.295.13.59.13.851.033.295.033.557.033.786v4.913c0 .294-.032.622-.098.95a1.872 1.872 0 01-.458.916 1.567 1.567 0 01-.885.524 4.999 4.999 0 01-.982.099h-6.485c-.36 0-.687-.033-1.048-.099a1.626 1.626 0 01-.95-.524 2.802 2.802 0 01-.49-.72c-.132-.295-.23-.557-.263-.884a4.065 4.065 0 01-.098-.885c0-.294-.033-.556-.033-.786 0-.261 0-.524.033-.785.033-.262.066-.557.131-.82.066-.261.164-.523.295-.753.13-.229.295-.425.524-.622.295-.262.622-.393.95-.458.327-.033.655-.066.982-.066h4.814v-.163c0-.099 0-.23-.032-.36-.033-.132-.066-.263-.164-.426-.164-.23-.36-.36-.59-.393a4.921 4.921 0 00-.655-.066h-5.534V5.738h7.27v.033zm-3.21 7.107c-.065 0-.163 0-.294.033-.131.032-.23.065-.328.163-.065.066-.098.164-.13.262-.033.098-.033.197-.033.295 0 .098 0 .164.032.262a.528.528 0 00.131.23.713.713 0 00.262.163c.099.033.197.033.295.033h2.129c.098 0 .23 0 .327-.033.099-.033.197-.066.262-.131.099-.066.164-.164.164-.262.033-.098.033-.197.033-.295v-.72h-2.85zM84.824 7.867c0-.23.033-.459.066-.721.032-.262.163-.491.393-.72.163-.164.327-.295.524-.393.196-.099.425-.164.655-.197.229-.033.425-.065.655-.065h4.388c.623 0 1.278.065 1.9.163.622.099 1.244.393 1.801.885.295.262.557.556.72.851.164.295.328.59.426.917.099.295.164.622.197.917.032.295.032.557.032.819v7.205h-4.06v-5.993a5.63 5.63 0 00-.099-1.114 2.648 2.648 0 00-.36-.884c-.164-.262-.393-.426-.655-.557a2.856 2.856 0 00-1.015-.164h-.72c-.099 0-.165 0-.296.033a1.164 1.164 0 00-.294.131c-.098.098-.164.197-.164.328v8.154h-4.061V7.867h-.033z" fill="#222"></path><path d="M95.531 18.444c.59 0 1.048 0 1.376-.098.327-.065.622-.23.917-.458.262-.23.458-.492.622-.82.131-.327.23-.785.23-1.407V5.77h4.06v10.807c0 .262 0 .556-.033.884a6.444 6.444 0 01-.196 1.048c-.098.36-.262.688-.491 1.015a3.601 3.601 0 01-.852.884c-.524.36-1.212.623-2.096.72-.884.1-2.03.165-3.504.132v-2.817h-.033zm3.144-13.853V2.004h4.061V4.59h-4.06zM108.205 17.497c-.426 0-.819 0-1.179-.033-.36 0-.721-.066-1.048-.164-.328-.098-.622-.262-.917-.458-.295-.197-.524-.492-.753-.885-.23-.425-.393-.982-.459-1.637-.065-.655-.098-1.507-.098-2.587v-1.54c0-.49.033-.95.065-1.375.066-.426.131-.819.262-1.146.131-.36.328-.655.557-.917.262-.295.557-.492.95-.655a4.963 4.963 0 011.244-.328c.459-.065.95-.13 1.441-.13.492 0 1.016-.034 1.54-.034 1.113 0 2.063.033 2.783.099.721.065 1.31.294 1.769.687.262.23.458.492.622.82.164.327.295.654.36 1.014.099.36.131.72.164 1.081.033.36.033.688.033 1.015 0 .393-.033.786-.098 1.147-.066.393-.262.72-.557.982a1.07 1.07 0 01-.524.295c-.164.033-.36.033-.557.033h-5.993c0 .163 0 .327.033.524.032.163.098.327.163.458.164.295.426.459.786.491.328.033.688.066 1.048.066h5.339v3.144h-6.976v.033zm2.62-7.402c.295 0 .458-.065.557-.23.065-.13.131-.294.131-.392 0-.164-.066-.328-.131-.459-.099-.13-.295-.262-.59-.327a2.936 2.936 0 00-.589-.066c-.23 0-.393-.032-.492-.032-.229 0-.491 0-.753.032-.262.033-.491.066-.655.164a.908.908 0 00-.393.524c-.065.23-.065.491-.033.786h2.948zM115.769 2.532a1.832 1.832 0 01-1.865 1.866 1.832 1.832 0 01-1.865-1.866c0-1.056.808-1.803 1.927-1.803.995 0 1.803.809 1.803 1.803zm-3.295 0c0 .809.622 1.493 1.43 1.493.808 0 1.368-.622 1.368-1.43 0-.809-.622-1.492-1.43-1.492-.746 0-1.368.683-1.368 1.43zm1.119.995h-.435V1.662c.187 0 .373-.062.684-.062.373 0 .497.062.622.124.124.062.186.187.186.373 0 .249-.186.373-.373.435.187.063.249.187.311.436.062.248.124.373.124.435h-.435c-.062-.062-.062-.249-.124-.435-.062-.187-.124-.249-.373-.249h-.187v.808zm0-1.057h.187c.249 0 .435-.062.435-.248 0-.187-.124-.25-.373-.25h-.249v.498z" fill="#222"></path></svg>