<svg width="16" height="16" viewBox="0 0 16 16" fill="none" xmlns="http://www.w3.org/2000/svg">
<path fill-rule="evenodd" clip-rule="evenodd" d="M1.06667 2.13336C0.477563 2.13336 0 2.61093 0 3.20003V12.8C0 13.3891 0.477563 13.8667 1.06667 13.8667H14.9333C15.5225 13.8667 16 13.3891 16 12.8V3.20003C16 2.61093 15.5225 2.13336 14.9333 2.13336H1.06667ZM1.06667 3.20003H14.9333V4.18663C14.8452 4.18655 14.7561 4.21071 14.6762 4.26142L8 8.49819L1.32386 4.26142C1.24396 4.21071 1.15477 4.18655 1.06667 4.18663V3.20003ZM1.06667 5.2352V12.8H14.9333V5.2352L8.25719 9.47197C8.1002 9.5716 7.8998 9.5716 7.74281 9.47197L1.06667 5.2352Z" fill="black" fill-opacity="0.85"/>
</svg>
