<svg width="16" height="16" viewBox="0 0 16 16" fill="none" xmlns="http://www.w3.org/2000/svg">
<path d="M13.6 4.18188H2.4C1.62781 4.18188 1 4.75262 1 5.45461V10.5455C1 11.2475 1.62781 11.8182 2.4 11.8182H5.03375C5.56312 11.8182 6.04875 11.5458 6.285 11.1143L6.985 9.84154C7.1775 9.49353 7.56906 9.27279 7.99781 9.27279C8.42656 9.27279 8.81813 9.49353 9.01063 9.84154L9.71063 11.1143C9.94688 11.5458 10.4325 11.8182 10.9619 11.8182H13.6C14.3722 11.8182 15 11.2475 15 10.5455V5.45461C15 4.75262 14.3722 4.18188 13.6 4.18188Z" stroke="#0D0D0D"/>
<path d="M3.51096 6.78195C3.24841 7.02064 3.10091 7.34436 3.10091 7.68191C3.10091 8.01946 3.24841 8.34318 3.51096 8.58186C3.77352 8.82054 4.12961 8.95463 4.50091 8.95463C4.87222 8.95463 5.22831 8.82054 5.49086 8.58186C5.75341 8.34318 5.90091 8.01946 5.90091 7.68191C5.90091 7.34436 5.75341 7.02064 5.49086 6.78195C5.22831 6.54327 4.87222 6.40918 4.50091 6.40918C4.12961 6.40918 3.77352 6.54327 3.51096 6.78195Z" fill="#0D0D0D"/>
<path d="M12.4909 6.78195C12.2283 6.54327 11.8722 6.40918 11.5009 6.40918C11.1296 6.40918 10.7735 6.54327 10.511 6.78195C10.2484 7.02064 10.1009 7.34436 10.1009 7.68191C10.1009 8.01946 10.2484 8.34318 10.511 8.58186C10.7735 8.82054 11.1296 8.95463 11.5009 8.95463C11.8722 8.95463 12.2283 8.82054 12.4909 8.58186C12.7534 8.34318 12.9009 8.01946 12.9009 7.68191C12.9009 7.34436 12.7534 7.02064 12.4909 6.78195Z" fill="#0D0D0D"/>
</svg>
